<svg id="svg" version="1.1" xmlns="http://www.w3.org/2000/svg" xmlns:xlink="http://www.w3.org/1999/xlink" width="400" height="400" viewBox="0, 0, 400,400"><g id="svgg"><path id="path0" d="M152.053 55.028 C 150.212 55.979,148.425 57.171,148.083 57.678 C 147.741 58.185,146.772 59.361,145.930 60.291 C 145.089 61.221,144.400 62.241,144.400 62.557 C 144.400 62.873,143.681 64.489,142.802 66.148 C 141.313 68.959,141.175 69.500,140.789 74.082 C 140.219 80.830,139.707 84.896,139.012 88.200 C 138.687 89.740,138.233 93.700,138.002 97.000 C 137.045 110.678,136.737 113.862,136.011 117.542 C 134.663 124.383,134.416 130.386,134.415 156.409 C 134.414 183.085,134.310 184.912,132.624 187.754 C 132.086 188.659,131.274 190.073,130.817 190.896 C 130.249 191.920,129.327 192.728,127.897 193.452 C 126.747 194.035,125.625 194.737,125.403 195.012 C 125.182 195.288,124.226 195.990,123.281 196.574 C 121.306 197.792,120.959 198.403,121.583 199.569 L 122.028 200.400 183.352 200.400 C 252.695 200.400,245.990 200.054,246.010 203.631 C 246.048 210.786,249.186 211.726,254.589 206.200 C 256.417 204.330,258.095 202.800,258.317 202.800 C 258.540 202.800,258.910 202.260,259.140 201.600 L 259.558 200.400 278.317 200.400 C 296.242 200.400,297.107 200.434,297.764 201.160 C 298.603 202.088,298.086 204.636,296.828 205.775 C 296.401 206.161,295.663 207.315,295.187 208.339 C 294.711 209.362,293.987 210.563,293.579 211.007 C 293.170 211.450,292.361 212.707,291.780 213.799 C 291.199 214.891,290.291 216.218,289.762 216.747 C 289.233 217.276,288.800 217.925,288.800 218.189 C 288.800 218.454,288.113 219.644,287.272 220.835 C 286.432 222.026,285.523 223.554,285.253 224.231 C 284.982 224.908,284.139 226.047,283.380 226.763 C 282.621 227.479,282.000 228.307,282.000 228.602 C 282.000 228.897,281.390 229.938,280.644 230.915 C 279.899 231.892,279.165 233.080,279.014 233.556 C 278.863 234.032,278.078 235.217,277.270 236.188 C 275.631 238.159,273.294 241.768,272.082 244.200 C 271.644 245.080,270.913 246.136,270.459 246.547 C 270.005 246.958,269.339 248.218,268.980 249.347 C 268.621 250.476,267.874 251.813,267.320 252.318 C 266.767 252.822,265.748 254.319,265.057 255.644 C 264.366 256.968,263.350 258.909,262.800 259.957 C 262.250 261.005,261.320 262.429,260.734 263.121 C 260.148 263.813,259.452 265.059,259.187 265.890 C 258.922 266.720,258.201 267.940,257.584 268.600 C 256.967 269.260,256.019 270.812,255.476 272.049 C 254.933 273.286,254.280 274.427,254.023 274.586 C 253.767 274.744,253.141 275.802,252.633 276.937 C 252.124 278.072,251.240 279.431,250.667 279.957 C 250.095 280.484,249.343 281.768,248.997 282.810 C 248.650 283.853,247.996 285.042,247.543 285.452 C 247.089 285.862,246.192 287.278,245.548 288.599 C 244.181 291.403,242.254 294.792,241.631 295.485 C 240.610 296.624,239.200 298.958,239.200 299.511 C 239.200 300.083,237.526 302.166,234.629 305.200 C 233.894 305.970,231.898 308.220,230.195 310.200 C 228.491 312.180,226.625 314.341,226.049 315.002 C 221.415 320.313,216.922 325.502,216.525 326.000 C 216.262 326.330,215.494 327.230,214.819 328.000 C 211.552 331.726,210.502 333.136,209.809 334.724 C 209.395 335.673,208.712 336.633,208.291 336.858 C 207.870 337.083,207.109 338.210,206.600 339.362 C 206.091 340.513,205.226 342.116,204.678 342.923 C 204.130 343.730,203.463 345.338,203.196 346.495 C 202.929 347.653,202.301 349.320,201.801 350.200 C 201.301 351.080,200.604 352.925,200.254 354.301 C 199.903 355.676,199.073 357.845,198.409 359.121 C 197.746 360.396,197.007 362.510,196.767 363.820 C 196.528 365.129,195.823 367.100,195.201 368.200 C 194.578 369.300,193.848 371.370,193.577 372.800 C 193.040 375.642,192.665 376.587,191.594 377.800 C 191.205 378.240,190.587 379.950,190.219 381.600 C 189.852 383.250,189.112 385.352,188.575 386.272 C 188.039 387.191,187.358 389.081,187.063 390.472 C 186.769 391.862,185.959 394.120,185.264 395.489 C 184.569 396.857,184.000 398.432,184.000 398.989 L 184.000 400.000 210.800 400.000 C 237.333 400.000,237.600 399.992,237.600 399.200 C 237.600 398.431,237.883 398.398,245.000 398.350 C 249.070 398.322,252.580 398.255,252.800 398.200 C 253.020 398.145,253.380 398.078,253.600 398.050 C 253.820 398.023,254.000 397.376,254.000 396.612 L 254.000 395.225 258.900 395.112 L 263.800 395.000 263.923 393.512 L 264.047 392.025 268.723 391.912 L 273.400 391.800 273.523 390.100 L 273.646 388.400 277.641 388.400 C 281.832 388.400,283.600 387.634,283.600 385.818 C 283.600 385.312,284.180 385.200,286.800 385.200 L 290.000 385.200 290.000 383.600 L 290.000 382.000 292.920 382.000 C 296.139 382.000,296.800 381.645,296.800 379.920 C 296.800 378.888,296.921 378.800,298.333 378.800 C 299.177 378.800,299.996 378.670,300.155 378.512 C 300.313 378.354,300.838 378.219,301.321 378.212 C 301.911 378.204,302.397 377.780,302.800 376.924 C 303.282 375.899,303.675 375.624,304.800 375.524 C 306.136 375.406,306.206 375.323,306.322 373.716 L 306.444 372.032 309.722 371.916 L 313.000 371.800 313.124 370.300 C 313.241 368.892,313.330 368.800,314.581 368.800 C 315.989 368.800,316.400 368.296,316.400 366.567 C 316.400 365.667,318.903 365.239,321.855 365.634 C 322.312 365.695,322.788 364.625,322.794 363.523 C 322.799 362.543,322.953 362.435,324.500 362.323 C 326.145 362.204,326.204 362.152,326.323 360.723 C 326.438 359.335,326.535 359.238,327.923 359.123 C 328.736 359.055,329.422 358.775,329.450 358.500 C 329.478 358.225,329.523 357.460,329.550 356.800 C 329.595 355.712,329.727 355.600,330.957 355.600 C 332.391 355.600,332.800 355.104,332.800 353.367 C 332.800 352.505,332.974 352.400,334.400 352.400 L 336.000 352.400 336.000 350.800 L 336.000 349.200 338.920 349.200 C 342.139 349.200,342.800 348.845,342.800 347.120 C 342.800 346.160,342.960 346.000,343.920 346.000 C 345.341 346.000,346.000 345.341,346.000 343.920 C 346.000 342.960,346.160 342.800,347.120 342.800 C 348.845 342.800,349.200 342.139,349.200 338.920 L 349.200 336.000 350.800 336.000 L 352.400 336.000 352.400 334.400 C 352.400 332.974,352.505 332.800,353.367 332.800 C 355.104 332.800,355.600 332.391,355.600 330.957 C 355.600 329.727,355.712 329.595,356.800 329.550 C 357.460 329.523,358.225 329.478,358.500 329.450 C 358.775 329.422,359.055 328.736,359.123 327.923 C 359.238 326.535,359.335 326.438,360.723 326.323 C 362.152 326.204,362.204 326.145,362.323 324.500 C 362.435 322.953,362.543 322.799,363.523 322.794 C 364.625 322.788,365.695 322.312,365.634 321.855 C 365.239 318.903,365.667 316.400,366.567 316.400 C 368.296 316.400,368.800 315.989,368.800 314.581 C 368.800 313.330,368.892 313.241,370.300 313.124 L 371.800 313.000 371.916 309.722 L 372.032 306.444 373.716 306.322 C 375.323 306.206,375.406 306.136,375.524 304.800 C 375.624 303.675,375.899 303.282,376.924 302.800 C 377.780 302.397,378.204 301.911,378.212 301.321 C 378.219 300.838,378.354 300.313,378.512 300.155 C 378.670 299.996,378.800 299.177,378.800 298.333 C 378.800 296.921,378.888 296.800,379.920 296.800 C 381.645 296.800,382.000 296.139,382.000 292.920 L 382.000 290.000 383.600 290.000 L 385.200 290.000 385.200 286.800 C 385.200 284.180,385.312 283.600,385.818 283.600 C 387.634 283.600,388.400 281.832,388.400 277.641 L 388.400 273.646 390.100 273.523 L 391.800 273.400 391.912 268.723 L 392.025 264.047 393.512 263.923 L 395.000 263.800 395.112 258.900 L 395.225 254.000 396.612 254.000 C 397.376 254.000,398.023 253.820,398.050 253.600 C 398.078 253.380,398.145 253.020,398.200 252.800 C 398.255 252.580,398.322 249.070,398.350 245.000 C 398.398 237.883,398.431 237.600,399.200 237.600 C 399.989 237.600,400.000 237.333,400.000 218.800 L 400.000 200.000 353.262 200.000 C 300.278 200.000,304.518 200.274,305.626 196.925 C 305.904 196.086,306.094 194.580,306.049 193.577 C 305.985 192.153,306.156 191.583,306.826 190.977 C 307.299 190.550,308.046 189.480,308.488 188.600 C 308.929 187.720,309.621 186.638,310.025 186.196 C 310.429 185.754,311.199 184.397,311.737 183.180 C 312.275 181.963,313.034 180.705,313.422 180.384 C 313.811 180.063,314.530 178.900,315.020 177.800 C 315.509 176.700,316.383 175.293,316.961 174.673 C 317.539 174.053,318.288 172.886,318.625 172.078 C 318.962 171.271,319.575 170.248,319.986 169.805 C 320.397 169.362,321.176 167.993,321.717 166.762 C 322.259 165.531,322.966 164.422,323.290 164.298 C 323.613 164.174,324.301 163.021,324.819 161.736 C 325.337 160.451,326.244 158.632,326.834 157.694 C 328.456 155.118,329.086 146.280,327.984 141.577 C 326.745 136.289,319.118 133.011,314.185 135.647 C 313.313 136.112,311.790 136.903,310.800 137.404 C 307.603 139.021,303.472 143.650,298.844 150.800 C 298.203 151.790,297.233 153.050,296.688 153.600 C 296.144 154.150,295.477 155.028,295.208 155.550 C 294.939 156.073,294.152 157.261,293.459 158.190 C 292.767 159.120,291.930 160.291,291.600 160.792 C 291.270 161.294,290.415 162.418,289.700 163.290 C 288.985 164.162,288.400 165.038,288.400 165.237 C 288.400 165.435,287.803 166.273,287.074 167.099 C 286.345 167.924,285.257 169.455,284.657 170.500 C 284.057 171.545,283.397 172.400,283.190 172.400 C 282.983 172.400,282.363 173.290,281.811 174.378 C 281.260 175.465,280.563 176.500,280.263 176.678 C 279.962 176.855,279.252 177.744,278.683 178.652 C 278.115 179.561,277.189 180.802,276.625 181.411 C 276.061 182.019,275.599 182.716,275.598 182.958 C 275.596 183.521,270.887 188.983,269.669 189.837 C 269.163 190.191,268.588 190.905,268.391 191.424 C 268.194 191.943,267.338 192.721,266.489 193.154 C 265.641 193.587,264.689 194.254,264.373 194.635 C 264.058 195.017,262.845 195.752,261.678 196.270 C 260.030 196.999,259.425 197.522,258.972 198.605 L 258.389 200.000 254.695 199.987 C 252.314 199.979,250.759 199.791,250.321 199.459 C 249.440 198.789,247.461 192.442,246.618 187.582 C 245.892 183.396,245.764 183.099,243.327 179.901 C 241.920 178.056,241.220 177.533,238.927 176.617 C 237.427 176.017,236.020 175.379,235.800 175.198 C 234.659 174.260,231.389 174.668,228.311 176.131 C 226.613 176.939,225.075 177.600,224.894 177.600 C 224.713 177.600,223.132 178.991,221.382 180.691 C 215.026 186.866,214.505 187.071,212.449 184.209 C 211.204 182.475,211.196 182.434,211.252 177.732 C 211.322 171.778,210.187 166.472,208.444 164.600 C 207.830 163.940,206.934 162.826,206.453 162.124 C 205.972 161.422,205.179 160.728,204.690 160.583 C 204.200 160.438,203.117 159.782,202.282 159.126 C 199.052 156.588,189.675 156.374,187.151 158.781 C 186.628 159.280,185.414 160.031,184.453 160.450 C 183.493 160.869,181.423 162.339,179.853 163.718 C 175.537 167.510,175.900 167.322,173.989 166.749 C 171.544 166.017,171.166 165.153,170.732 159.302 C 170.523 156.496,170.086 152.490,169.759 150.400 C 169.432 148.310,168.873 144.710,168.516 142.400 C 167.264 134.293,167.695 112.242,169.400 97.200 C 171.213 81.212,171.160 65.066,169.285 62.111 C 168.618 61.060,167.811 59.570,167.491 58.800 C 166.758 57.033,166.056 56.428,162.667 54.641 C 158.791 52.598,156.602 52.677,152.053 55.028 M161.432 54.924 C 162.329 55.406,163.723 56.147,164.528 56.572 C 165.333 56.997,166.106 57.703,166.245 58.140 C 166.384 58.578,167.105 59.887,167.849 61.049 C 170.467 65.143,170.663 77.346,168.446 98.400 C 166.682 115.158,166.595 134.583,168.235 145.400 C 169.273 152.243,169.972 158.119,169.986 160.123 C 170.048 168.811,174.551 170.118,181.296 163.407 C 182.431 162.277,185.259 160.618,189.133 158.809 C 192.527 157.224,200.962 157.998,202.205 160.008 C 202.366 160.268,203.105 160.735,203.847 161.045 C 204.611 161.364,205.623 162.286,206.181 163.170 C 206.723 164.029,207.534 164.989,207.984 165.304 C 209.411 166.304,210.468 171.390,210.539 177.600 C 210.649 187.276,213.947 189.494,219.462 183.600 C 220.183 182.830,221.030 181.957,221.346 181.660 C 223.953 179.207,224.969 178.468,226.847 177.657 C 228.031 177.146,229.510 176.474,230.132 176.164 C 232.308 175.080,235.055 175.582,240.100 177.984 C 241.145 178.481,242.000 179.086,242.000 179.327 C 242.000 179.569,242.625 180.406,243.389 181.189 C 244.815 182.649,246.379 187.348,246.394 190.215 C 246.397 190.883,246.952 193.012,247.626 194.946 C 248.993 198.866,248.652 200.991,246.813 200.007 C 246.307 199.736,225.445 199.600,184.475 199.600 C 130.228 199.600,122.839 199.529,122.400 199.000 C 121.827 198.310,122.473 197.200,123.448 197.200 C 123.750 197.200,124.673 196.607,125.499 195.881 C 126.324 195.156,127.777 194.223,128.728 193.808 C 129.824 193.329,130.682 192.605,131.075 191.827 C 131.416 191.152,132.146 189.997,132.699 189.259 C 134.958 186.243,134.925 186.688,135.228 154.400 C 135.462 129.429,135.611 124.081,136.150 121.400 C 136.989 117.218,137.900 109.664,138.199 104.400 C 138.567 97.915,139.194 91.681,139.789 88.600 C 140.086 87.060,140.537 83.550,140.790 80.800 C 141.443 73.725,142.381 68.398,143.219 67.000 C 143.615 66.340,144.328 64.759,144.803 63.487 C 145.295 62.170,146.076 60.907,146.616 60.553 C 147.138 60.211,147.924 59.361,148.361 58.665 C 150.560 55.172,157.953 53.055,161.432 54.924 M324.430 137.745 C 328.612 141.495,329.343 152.128,325.823 158.000 C 325.098 159.210,324.294 160.853,324.037 161.652 C 323.780 162.450,323.191 163.440,322.727 163.852 C 322.264 164.263,321.448 165.579,320.913 166.776 C 320.379 167.973,319.505 169.472,318.971 170.107 C 318.437 170.742,318.000 171.501,318.000 171.793 C 318.000 172.085,317.343 173.106,316.540 174.062 C 315.736 175.018,314.675 176.707,314.182 177.816 C 313.688 178.925,312.993 180.074,312.638 180.369 C 312.282 180.664,311.658 181.657,311.252 182.575 C 310.846 183.492,309.859 185.102,309.057 186.152 C 308.256 187.202,307.595 188.272,307.589 188.531 C 307.583 188.789,307.037 189.715,306.376 190.588 C 305.444 191.820,305.231 192.430,305.424 193.310 C 305.719 194.653,304.520 198.968,303.620 199.804 C 301.260 201.994,299.852 202.956,299.695 202.485 C 299.601 202.202,299.075 201.437,298.526 200.785 L 297.529 199.600 279.397 199.600 C 269.425 199.600,260.981 199.491,260.633 199.357 C 259.433 198.897,259.915 197.689,261.500 197.183 C 262.325 196.919,263.450 196.300,264.000 195.808 C 264.550 195.315,265.650 194.482,266.446 193.956 C 267.982 192.940,275.720 184.509,276.905 182.559 C 278.258 180.333,279.410 178.711,280.700 177.213 C 281.415 176.382,282.000 175.528,282.000 175.314 C 282.000 175.100,282.900 173.896,284.000 172.639 C 285.100 171.382,286.000 170.131,286.000 169.860 C 286.000 169.589,286.630 168.699,287.400 167.882 C 288.170 167.066,288.800 166.157,288.800 165.861 C 288.800 165.566,289.700 164.296,290.800 163.039 C 291.900 161.782,292.800 160.601,292.800 160.415 C 292.800 160.228,293.430 159.322,294.200 158.400 C 294.970 157.478,295.600 156.503,295.600 156.232 C 295.600 155.961,296.061 155.306,296.625 154.777 C 297.189 154.247,298.031 153.181,298.498 152.407 C 298.964 151.633,299.938 150.329,300.663 149.509 C 301.389 148.689,302.247 147.384,302.570 146.609 C 302.894 145.834,303.341 145.200,303.564 145.200 C 303.786 145.200,304.558 144.300,305.278 143.200 C 305.998 142.100,306.743 141.200,306.933 141.200 C 307.123 141.200,307.782 140.662,308.396 140.005 C 309.010 139.347,310.297 138.449,311.256 138.009 C 312.215 137.569,313.630 136.837,314.400 136.382 C 315.566 135.694,316.340 135.576,319.030 135.678 L 322.261 135.800 324.430 137.745 M0.000 218.800 C 0.000 237.268,0.014 237.600,0.792 237.600 C 1.551 237.600,1.588 237.931,1.692 245.700 L 1.800 253.800 3.300 253.924 L 4.800 254.048 4.846 257.324 C 4.871 259.126,4.865 260.886,4.832 261.236 C 4.675 262.886,5.545 264.000,6.990 264.000 L 8.400 264.000 8.400 268.800 L 8.400 273.600 9.984 273.600 L 11.568 273.600 11.684 276.900 L 11.800 280.200 13.300 280.324 L 14.800 280.448 14.800 283.624 L 14.800 286.800 16.400 286.800 L 18.000 286.800 18.000 290.976 C 18.000 293.374,18.173 295.260,18.407 295.404 C 18.630 295.542,18.709 295.823,18.583 296.028 C 18.456 296.232,18.709 296.400,19.144 296.400 C 20.945 296.400,21.200 296.773,21.200 299.410 C 21.200 302.867,21.380 303.200,23.243 303.200 C 24.793 303.200,24.800 303.207,24.800 304.800 L 24.800 306.400 26.400 306.400 L 28.000 306.400 28.047 309.300 C 28.073 310.895,28.073 312.335,28.047 312.500 C 28.021 312.665,28.315 312.827,28.700 312.861 C 29.085 312.894,29.580 312.964,29.800 313.015 C 30.020 313.066,30.414 313.128,30.676 313.154 C 30.938 313.179,31.208 313.875,31.276 314.700 C 31.393 316.115,31.484 316.207,32.884 316.323 L 34.367 316.446 34.484 319.523 L 34.600 322.600 36.100 322.724 C 37.499 322.840,37.600 322.935,37.600 324.144 C 37.600 325.783,38.217 326.400,39.856 326.400 C 41.065 326.400,41.160 326.501,41.276 327.900 C 41.393 329.319,41.481 329.407,42.900 329.524 C 44.358 329.645,44.400 329.692,44.400 331.224 C 44.400 332.792,44.408 332.800,45.976 332.800 C 47.508 332.800,47.555 332.842,47.676 334.300 C 47.793 335.719,47.881 335.807,49.300 335.924 L 50.800 336.048 50.800 339.181 C 50.800 342.529,50.967 342.800,53.033 342.800 C 53.790 342.800,54.000 343.011,54.000 343.771 C 54.000 345.458,54.974 346.000,58.004 346.000 L 60.752 346.000 60.876 347.500 C 60.993 348.914,61.085 349.007,62.477 349.123 C 63.865 349.238,63.962 349.335,64.077 350.723 C 64.193 352.115,64.286 352.207,65.700 352.324 C 67.158 352.445,67.200 352.492,67.200 354.024 C 67.200 355.596,67.204 355.600,68.800 355.600 C 70.343 355.600,70.400 355.647,70.400 356.920 C 70.400 358.532,71.007 359.200,72.472 359.200 C 73.361 359.200,73.633 359.421,73.826 360.300 C 74.263 362.295,74.361 362.400,75.787 362.400 C 76.913 362.400,77.212 362.562,77.260 363.200 C 77.293 363.640,77.338 364.225,77.360 364.500 C 77.415 365.192,78.603 365.513,81.276 365.560 L 83.552 365.600 83.676 367.100 C 83.793 368.514,83.885 368.607,85.277 368.723 C 86.665 368.838,86.762 368.935,86.877 370.323 L 87.000 371.800 90.593 371.917 C 94.456 372.043,95.200 371.701,95.200 369.802 C 95.200 369.338,95.735 368.230,96.390 367.340 C 97.160 366.293,97.848 364.569,98.341 362.453 C 98.767 360.621,99.562 358.521,100.150 357.673 C 100.730 356.835,101.391 355.098,101.631 353.780 C 101.870 352.471,102.616 350.320,103.289 349.000 C 103.962 347.680,104.749 345.379,105.039 343.886 C 105.328 342.394,105.963 340.614,106.449 339.931 C 106.935 339.248,107.743 337.152,108.245 335.272 C 108.747 333.392,109.538 331.339,110.004 330.709 C 110.470 330.079,111.108 328.331,111.422 326.823 C 112.113 323.511,112.311 322.969,113.443 321.299 C 113.928 320.584,114.450 319.054,114.602 317.899 C 114.864 315.911,115.558 314.115,117.113 311.400 C 118.819 308.420,118.189 293.092,116.242 290.223 C 115.702 289.428,114.991 287.598,114.662 286.157 C 114.334 284.715,113.611 282.876,113.057 282.068 C 112.502 281.261,111.840 279.760,111.585 278.734 C 111.330 277.707,110.774 276.493,110.348 276.036 C 109.447 275.069,108.000 271.856,108.000 270.823 C 108.000 270.432,107.593 269.502,107.096 268.756 C 105.755 266.743,105.295 265.538,104.800 262.733 C 104.554 261.340,103.898 258.865,103.342 257.234 C 100.633 249.283,100.947 222.360,103.785 219.215 C 104.090 218.877,104.558 217.733,104.824 216.674 C 105.244 215.004,105.955 214.092,110.154 209.832 C 116.736 203.155,116.500 203.478,115.508 202.486 L 114.703 201.680 115.610 201.195 C 116.325 200.812,116.866 200.816,118.159 201.212 L 119.800 201.716 118.200 202.467 L 116.600 203.218 118.200 202.957 C 120.295 202.615,121.032 202.058,120.320 201.356 C 119.114 200.166,111.199 200.000,55.758 200.000 L 0.000 200.000 0.000 218.800 " stroke="none" fill="#9b0405" fill-rule="evenodd"></path><path id="path1" d="M152.279 55.758 C 150.268 56.816,148.875 57.850,148.361 58.665 C 147.924 59.361,147.138 60.211,146.616 60.553 C 146.076 60.907,145.295 62.170,144.803 63.487 C 144.328 64.759,143.615 66.340,143.219 67.000 C 142.381 68.398,141.443 73.725,140.790 80.800 C 140.537 83.550,140.086 87.060,139.789 88.600 C 139.194 91.681,138.567 97.915,138.199 104.400 C 137.900 109.664,136.989 117.218,136.150 121.400 C 135.611 124.081,135.462 129.429,135.228 154.400 C 134.925 186.688,134.958 186.243,132.699 189.259 C 132.146 189.997,131.416 191.152,131.075 191.827 C 130.682 192.605,129.824 193.329,128.728 193.808 C 127.777 194.223,126.324 195.156,125.499 195.881 C 124.673 196.607,123.750 197.200,123.448 197.200 C 122.473 197.200,121.827 198.310,122.400 199.000 C 122.839 199.529,130.228 199.600,184.475 199.600 C 225.445 199.600,246.307 199.736,246.813 200.007 C 248.652 200.991,248.993 198.866,247.626 194.946 C 246.952 193.012,246.397 190.883,246.394 190.215 C 246.379 187.348,244.815 182.649,243.389 181.189 C 242.625 180.406,242.000 179.569,242.000 179.327 C 242.000 179.086,241.145 178.481,240.100 177.984 C 235.055 175.582,232.308 175.080,230.132 176.164 C 229.510 176.474,228.031 177.146,226.847 177.657 C 224.969 178.468,223.953 179.207,221.346 181.660 C 221.030 181.957,220.183 182.830,219.462 183.600 C 213.947 189.494,210.649 187.276,210.539 177.600 C 210.468 171.390,209.411 166.304,207.984 165.304 C 207.534 164.989,206.723 164.029,206.181 163.170 C 205.623 162.286,204.611 161.364,203.847 161.045 C 203.105 160.735,202.366 160.268,202.205 160.008 C 200.962 157.998,192.527 157.224,189.133 158.809 C 185.259 160.618,182.431 162.277,181.296 163.407 C 174.551 170.118,170.048 168.811,169.986 160.123 C 169.972 158.119,169.273 152.243,168.235 145.400 C 166.595 134.583,166.682 115.158,168.446 98.400 C 170.663 77.346,170.467 65.143,167.849 61.049 C 167.105 59.887,166.384 58.578,166.245 58.140 C 166.106 57.703,165.333 56.997,164.528 56.572 C 163.723 56.147,162.329 55.406,161.432 54.924 C 158.796 53.508,156.084 53.755,152.279 55.758 M314.400 136.382 C 313.630 136.837,312.215 137.569,311.256 138.009 C 310.297 138.449,309.010 139.347,308.396 140.005 C 307.782 140.662,307.123 141.200,306.933 141.200 C 306.743 141.200,305.998 142.100,305.278 143.200 C 304.558 144.300,303.786 145.200,303.564 145.200 C 303.341 145.200,302.894 145.834,302.570 146.609 C 302.247 147.384,301.389 148.689,300.663 149.509 C 299.938 150.329,298.964 151.633,298.498 152.407 C 298.031 153.181,297.189 154.247,296.625 154.777 C 296.061 155.306,295.600 155.961,295.600 156.232 C 295.600 156.503,294.970 157.478,294.200 158.400 C 293.430 159.322,292.800 160.228,292.800 160.415 C 292.800 160.601,291.900 161.782,290.800 163.039 C 289.700 164.296,288.800 165.566,288.800 165.861 C 288.800 166.157,288.170 167.066,287.400 167.882 C 286.630 168.699,286.000 169.589,286.000 169.860 C 286.000 170.131,285.100 171.382,284.000 172.639 C 282.900 173.896,282.000 175.100,282.000 175.314 C 282.000 175.528,281.415 176.382,280.700 177.213 C 279.410 178.711,278.258 180.333,276.905 182.559 C 275.720 184.509,267.982 192.940,266.446 193.956 C 265.650 194.482,264.550 195.315,264.000 195.808 C 263.450 196.300,262.325 196.919,261.500 197.183 C 259.915 197.689,259.433 198.897,260.633 199.357 C 260.981 199.491,269.425 199.600,279.397 199.600 L 297.529 199.600 298.526 200.785 C 299.075 201.437,299.601 202.202,299.695 202.485 C 299.852 202.956,301.260 201.994,303.620 199.804 C 304.520 198.968,305.719 194.653,305.424 193.310 C 305.231 192.430,305.444 191.820,306.376 190.588 C 307.037 189.715,307.583 188.789,307.589 188.531 C 307.595 188.272,308.256 187.202,309.057 186.152 C 309.859 185.102,310.846 183.492,311.252 182.575 C 311.658 181.657,312.282 180.664,312.638 180.369 C 312.993 180.074,313.688 178.925,314.182 177.816 C 314.675 176.707,315.736 175.018,316.540 174.062 C 317.343 173.106,318.000 172.085,318.000 171.793 C 318.000 171.501,318.437 170.742,318.971 170.107 C 319.505 169.472,320.379 167.973,320.913 166.776 C 321.448 165.579,322.264 164.263,322.727 163.852 C 323.191 163.440,323.780 162.450,324.037 161.652 C 324.294 160.853,325.098 159.210,325.823 158.000 C 329.343 152.128,328.612 141.495,324.430 137.745 L 322.261 135.800 319.030 135.678 C 316.340 135.576,315.566 135.694,314.400 136.382 M115.450 201.314 C 113.932 202.424,115.942 203.377,118.034 202.540 L 119.768 201.846 118.584 201.341 C 117.052 200.688,116.315 200.681,115.450 201.314 M387.314 282.700 C 386.341 283.689,386.623 283.910,387.779 283.065 C 388.181 282.771,388.440 282.366,388.355 282.165 C 388.270 281.964,387.801 282.205,387.314 282.700 M377.441 302.467 C 377.555 302.650,377.427 302.800,377.157 302.800 C 376.887 302.800,376.761 302.894,376.876 303.009 C 377.149 303.282,378.400 302.801,378.400 302.424 C 378.400 302.264,378.138 302.133,377.818 302.133 C 377.497 302.133,377.328 302.283,377.441 302.467 M302.800 377.157 C 302.800 377.427,302.650 377.555,302.467 377.441 C 302.283 377.328,302.133 377.497,302.133 377.818 C 302.133 378.138,302.264 378.400,302.424 378.400 C 302.801 378.400,303.282 377.149,303.009 376.876 C 302.894 376.761,302.800 376.887,302.800 377.157 M282.514 387.480 C 281.888 388.131,281.796 388.400,282.200 388.400 C 282.515 388.400,282.973 388.025,283.218 387.566 C 283.833 386.418,283.568 386.385,282.514 387.480 " stroke="none" fill="#09090b" fill-rule="evenodd"></path><path id="path2" d="M162.400 0.792 C 162.400 1.551,162.069 1.588,154.300 1.692 L 146.200 1.800 146.077 3.288 L 145.953 4.776 141.077 4.888 L 136.200 5.000 136.077 6.700 L 135.954 8.400 131.177 8.400 L 126.400 8.400 126.400 10.000 L 126.400 11.600 123.000 11.600 C 119.867 11.600,119.600 11.663,119.600 12.400 C 119.600 14.244,118.303 14.800,114.000 14.800 L 110.000 14.800 110.000 16.384 L 110.000 17.968 106.700 18.084 L 103.400 18.200 103.277 19.677 C 103.162 21.064,103.065 21.162,101.681 21.277 C 100.575 21.369,100.170 21.600,100.062 22.200 C 99.822 23.525,98.759 24.400,97.388 24.400 C 94.288 24.400,93.600 24.770,93.600 26.434 L 93.600 27.968 90.300 28.084 L 87.000 28.200 86.876 29.700 C 86.755 31.158,86.708 31.200,85.176 31.200 C 83.607 31.200,83.600 31.207,83.600 32.783 L 83.600 34.366 80.500 34.483 L 77.400 34.600 77.276 36.100 C 77.156 37.551,77.101 37.600,75.619 37.600 C 74.005 37.600,73.600 38.041,73.600 39.798 C 73.600 40.573,73.332 40.775,72.000 41.000 C 70.452 41.262,70.400 41.321,70.400 42.835 C 70.400 44.394,70.394 44.400,68.800 44.400 L 67.200 44.400 67.200 46.000 L 67.200 47.600 65.600 47.600 L 64.000 47.600 64.000 49.200 L 64.000 50.800 60.800 50.800 C 57.682 50.800,57.600 50.825,57.600 51.767 C 57.600 53.391,57.174 54.000,56.037 54.000 C 54.669 54.000,54.000 54.669,54.000 56.037 C 54.000 57.174,53.391 57.600,51.767 57.600 C 50.825 57.600,50.800 57.682,50.800 60.800 L 50.800 64.000 49.200 64.000 L 47.600 64.000 47.600 65.600 L 47.600 67.200 46.000 67.200 L 44.400 67.200 44.400 68.800 C 44.400 70.394,44.394 70.400,42.835 70.400 C 41.321 70.400,41.262 70.452,41.000 72.000 C 40.775 73.332,40.573 73.600,39.798 73.600 C 38.041 73.600,37.600 74.005,37.600 75.619 C 37.600 77.101,37.551 77.156,36.100 77.276 L 34.600 77.400 34.483 80.500 L 34.366 83.600 32.783 83.600 C 31.207 83.600,31.200 83.607,31.200 85.176 C 31.200 86.708,31.158 86.755,29.700 86.876 L 28.200 87.000 28.084 90.300 L 27.968 93.600 26.434 93.600 C 24.770 93.600,24.400 94.288,24.400 97.388 C 24.400 98.759,23.525 99.822,22.200 100.062 C 21.600 100.170,21.369 100.575,21.277 101.681 C 21.162 103.065,21.064 103.162,19.677 103.277 L 18.200 103.400 18.084 106.700 L 17.968 110.000 16.384 110.000 L 14.800 110.000 14.800 114.000 C 14.800 118.303,14.244 119.600,12.400 119.600 C 11.663 119.600,11.600 119.867,11.600 123.000 L 11.600 126.400 10.000 126.400 L 8.400 126.400 8.400 131.177 L 8.400 135.954 6.700 136.077 L 5.000 136.200 4.888 141.077 L 4.776 145.953 3.288 146.077 L 1.800 146.200 1.692 154.300 C 1.588 162.069,1.551 162.400,0.792 162.400 C 0.014 162.400,0.000 162.732,0.000 181.200 L 0.000 200.000 55.758 200.000 C 110.310 200.000,118.960 200.171,120.293 201.277 C 121.111 201.956,120.209 202.678,118.159 202.985 C 117.051 203.151,116.081 203.581,115.671 204.087 C 115.302 204.543,112.819 207.128,110.154 209.832 C 105.955 214.092,105.244 215.004,104.824 216.674 C 104.558 217.733,104.090 218.877,103.785 219.215 C 100.947 222.360,100.633 249.283,103.342 257.234 C 103.898 258.865,104.554 261.340,104.800 262.733 C 105.295 265.538,105.755 266.743,107.096 268.756 C 107.593 269.502,108.000 270.432,108.000 270.823 C 108.000 271.856,109.447 275.069,110.348 276.036 C 110.774 276.493,111.330 277.707,111.585 278.734 C 111.840 279.760,112.502 281.261,113.057 282.068 C 113.611 282.876,114.334 284.715,114.662 286.157 C 114.991 287.598,115.702 289.428,116.242 290.223 C 118.189 293.092,118.819 308.420,117.113 311.400 C 115.558 314.115,114.864 315.911,114.602 317.899 C 114.450 319.054,113.928 320.584,113.443 321.299 C 112.311 322.969,112.113 323.511,111.422 326.823 C 111.108 328.331,110.470 330.079,110.004 330.709 C 109.538 331.339,108.747 333.392,108.245 335.272 C 107.743 337.152,106.935 339.248,106.449 339.931 C 105.963 340.614,105.328 342.394,105.039 343.886 C 104.749 345.379,103.962 347.680,103.289 349.000 C 102.616 350.320,101.870 352.471,101.631 353.780 C 101.391 355.098,100.730 356.835,100.150 357.673 C 99.562 358.521,98.767 360.621,98.341 362.453 C 97.848 364.569,97.160 366.293,96.390 367.340 C 95.735 368.230,95.200 369.372,95.200 369.879 C 95.200 370.385,94.840 371.160,94.400 371.600 C 92.433 373.567,93.710 375.600,96.912 375.600 C 98.749 375.600,100.000 376.446,100.000 377.689 C 100.000 378.414,100.814 378.800,102.345 378.800 C 103.171 378.800,103.528 379.075,103.866 379.968 C 104.348 381.246,106.178 381.994,108.836 381.998 C 109.961 382.000,110.366 382.207,110.707 382.957 C 111.324 384.311,113.367 385.200,115.861 385.200 C 118.114 385.200,119.379 385.953,119.668 387.464 C 119.789 388.096,120.274 388.216,123.104 388.316 L 126.400 388.432 126.400 389.567 C 126.400 391.316,127.204 391.666,131.758 391.898 L 135.932 392.111 136.176 393.412 C 136.482 395.043,136.990 395.188,142.454 395.195 C 146.547 395.200,146.733 395.238,147.363 396.200 C 147.724 396.750,148.207 397.200,148.438 397.200 C 148.668 397.200,149.127 397.470,149.457 397.800 C 149.939 398.281,151.276 398.400,156.229 398.400 C 162.133 398.400,162.400 398.435,162.400 399.200 C 162.400 399.980,162.667 400.000,173.200 400.000 L 184.000 400.000 184.000 398.989 C 184.000 398.432,184.569 396.857,185.264 395.489 C 185.959 394.120,186.769 391.862,187.063 390.472 C 187.358 389.081,188.039 387.191,188.575 386.272 C 189.112 385.352,189.852 383.250,190.219 381.600 C 190.587 379.950,191.205 378.240,191.594 377.800 C 192.665 376.587,193.040 375.642,193.577 372.800 C 193.848 371.370,194.578 369.300,195.201 368.200 C 195.823 367.100,196.528 365.129,196.767 363.820 C 197.007 362.510,197.746 360.396,198.409 359.121 C 199.073 357.845,199.903 355.676,200.254 354.301 C 200.604 352.925,201.301 351.080,201.801 350.200 C 202.301 349.320,202.929 347.653,203.196 346.495 C 203.463 345.338,204.130 343.730,204.678 342.923 C 205.226 342.116,206.091 340.513,206.600 339.362 C 207.109 338.210,207.870 337.083,208.291 336.858 C 208.712 336.633,209.395 335.673,209.809 334.724 C 210.502 333.136,211.552 331.726,214.819 328.000 C 215.494 327.230,216.262 326.330,216.525 326.000 C 216.922 325.502,221.415 320.313,226.049 315.002 C 226.625 314.341,228.491 312.180,230.195 310.200 C 231.898 308.220,233.894 305.970,234.629 305.200 C 237.526 302.166,239.200 300.083,239.200 299.511 C 239.200 298.958,240.610 296.624,241.631 295.485 C 242.254 294.792,244.181 291.403,245.548 288.599 C 246.192 287.278,247.089 285.862,247.543 285.452 C 247.996 285.042,248.650 283.853,248.997 282.810 C 249.343 281.768,250.095 280.484,250.667 279.957 C 251.240 279.431,252.124 278.072,252.633 276.937 C 253.141 275.802,253.767 274.744,254.023 274.586 C 254.280 274.427,254.933 273.286,255.476 272.049 C 256.019 270.812,256.967 269.260,257.584 268.600 C 258.201 267.940,258.922 266.720,259.187 265.890 C 259.452 265.059,260.148 263.813,260.734 263.121 C 261.320 262.429,262.250 261.005,262.800 259.957 C 263.350 258.909,264.366 256.968,265.057 255.644 C 265.748 254.319,266.767 252.822,267.320 252.318 C 267.874 251.813,268.621 250.476,268.980 249.347 C 269.339 248.218,270.005 246.958,270.459 246.547 C 270.913 246.136,271.644 245.080,272.082 244.200 C 273.294 241.768,275.631 238.159,277.270 236.188 C 278.078 235.217,278.863 234.032,279.014 233.556 C 279.165 233.080,279.899 231.892,280.644 230.915 C 281.390 229.938,282.000 228.897,282.000 228.602 C 282.000 228.307,282.621 227.479,283.380 226.763 C 284.139 226.047,284.982 224.908,285.253 224.231 C 285.523 223.554,286.432 222.026,287.272 220.835 C 288.113 219.644,288.800 218.454,288.800 218.189 C 288.800 217.925,289.233 217.276,289.762 216.747 C 290.291 216.218,291.199 214.891,291.780 213.799 C 292.361 212.707,293.170 211.450,293.579 211.007 C 293.987 210.563,294.711 209.362,295.187 208.339 C 295.663 207.315,296.401 206.161,296.828 205.775 C 298.086 204.636,298.603 202.088,297.764 201.160 C 297.107 200.434,296.242 200.400,278.317 200.400 L 259.558 200.400 259.140 201.600 C 258.910 202.260,258.540 202.800,258.317 202.800 C 258.095 202.800,256.417 204.330,254.589 206.200 C 249.164 211.748,246.047 210.789,246.010 203.562 C 245.991 200.080,252.341 200.400,183.283 200.400 L 122.028 200.400 121.583 199.569 C 120.959 198.403,121.306 197.792,123.281 196.574 C 124.226 195.990,125.182 195.288,125.403 195.012 C 125.625 194.737,126.734 194.042,127.867 193.467 C 129.904 192.435,130.348 191.895,132.788 187.493 C 134.297 184.770,134.414 182.537,134.415 156.409 C 134.416 130.386,134.663 124.383,136.011 117.542 C 136.737 113.862,137.045 110.678,138.002 97.000 C 138.233 93.700,138.687 89.740,139.012 88.200 C 139.707 84.896,140.219 80.830,140.789 74.082 C 141.175 69.500,141.313 68.959,142.802 66.148 C 143.681 64.489,144.400 62.888,144.400 62.589 C 144.400 62.291,145.300 61.018,146.400 59.761 C 147.500 58.504,148.400 57.345,148.400 57.186 C 148.400 56.357,155.917 53.200,157.891 53.200 C 161.309 53.200,166.400 56.170,167.491 58.800 C 167.811 59.570,168.618 61.060,169.285 62.111 C 171.160 65.066,171.213 81.212,169.400 97.200 C 167.695 112.242,167.264 134.293,168.516 142.400 C 168.873 144.710,169.432 148.310,169.759 150.400 C 170.086 152.490,170.523 156.496,170.732 159.302 C 171.166 165.153,171.544 166.017,173.989 166.749 C 175.900 167.322,175.537 167.510,179.853 163.718 C 181.423 162.339,183.493 160.869,184.453 160.450 C 185.414 160.031,186.628 159.280,187.151 158.781 C 189.675 156.374,199.052 156.588,202.282 159.126 C 203.117 159.782,204.200 160.438,204.690 160.583 C 205.179 160.728,205.972 161.422,206.453 162.124 C 206.934 162.826,207.830 163.940,208.444 164.600 C 210.187 166.472,211.322 171.778,211.252 177.732 C 211.196 182.434,211.204 182.475,212.449 184.209 C 214.505 187.071,215.026 186.866,221.382 180.691 C 223.132 178.991,224.713 177.600,224.894 177.600 C 225.075 177.600,226.613 176.939,228.311 176.131 C 231.389 174.668,234.659 174.260,235.800 175.198 C 236.020 175.379,237.427 176.017,238.927 176.617 C 241.220 177.533,241.920 178.056,243.327 179.901 C 245.764 183.099,245.892 183.396,246.618 187.582 C 247.461 192.442,249.440 198.789,250.321 199.459 C 250.759 199.791,252.314 199.979,254.695 199.987 L 258.389 200.000 258.972 198.605 C 259.425 197.522,260.030 196.999,261.678 196.270 C 262.845 195.752,264.058 195.017,264.373 194.635 C 264.689 194.254,265.641 193.587,266.489 193.154 C 267.338 192.721,268.194 191.943,268.391 191.424 C 268.588 190.905,269.163 190.191,269.669 189.837 C 270.887 188.983,275.596 183.521,275.598 182.958 C 275.599 182.716,276.061 182.019,276.625 181.411 C 277.189 180.802,278.115 179.561,278.683 178.652 C 279.252 177.744,279.962 176.855,280.263 176.678 C 280.563 176.500,281.260 175.465,281.811 174.378 C 282.363 173.290,282.983 172.400,283.190 172.400 C 283.397 172.400,284.057 171.545,284.657 170.500 C 285.257 169.455,286.345 167.924,287.074 167.099 C 287.803 166.273,288.400 165.435,288.400 165.237 C 288.400 165.038,288.985 164.162,289.700 163.290 C 290.415 162.418,291.270 161.294,291.600 160.792 C 291.930 160.291,292.767 159.120,293.459 158.190 C 294.152 157.261,294.939 156.073,295.208 155.550 C 295.477 155.028,296.144 154.150,296.688 153.600 C 297.233 153.050,298.203 151.790,298.844 150.800 C 303.472 143.650,307.603 139.021,310.800 137.404 C 311.790 136.903,313.313 136.112,314.185 135.647 C 319.118 133.011,326.745 136.289,327.984 141.577 C 329.086 146.280,328.456 155.118,326.834 157.694 C 326.244 158.632,325.337 160.451,324.819 161.736 C 324.301 163.021,323.613 164.174,323.290 164.298 C 322.966 164.422,322.259 165.531,321.717 166.762 C 321.176 167.993,320.397 169.362,319.986 169.805 C 319.575 170.248,318.962 171.271,318.625 172.078 C 318.288 172.886,317.539 174.053,316.961 174.673 C 316.383 175.293,315.509 176.700,315.020 177.800 C 314.530 178.900,313.811 180.063,313.422 180.384 C 313.034 180.705,312.275 181.963,311.737 183.180 C 311.199 184.397,310.429 185.754,310.025 186.196 C 309.621 186.638,308.929 187.720,308.488 188.600 C 308.046 189.480,307.299 190.550,306.826 190.977 C 306.156 191.583,305.985 192.153,306.049 193.577 C 306.094 194.580,305.904 196.086,305.626 196.925 C 304.518 200.274,300.278 200.000,353.262 200.000 L 400.000 200.000 400.000 181.200 C 400.000 162.732,399.986 162.400,399.208 162.400 C 398.449 162.400,398.412 162.069,398.308 154.300 L 398.200 146.200 396.712 146.077 L 395.224 145.953 395.112 141.077 L 395.000 136.200 393.512 136.077 L 392.025 135.953 391.912 131.277 L 391.800 126.600 390.100 126.477 L 388.400 126.354 388.400 122.977 C 388.400 119.867,388.337 119.600,387.600 119.600 C 385.756 119.600,385.200 118.303,385.200 114.000 L 385.200 110.000 383.600 110.000 L 382.000 110.000 382.000 107.233 C 382.000 103.613,381.814 103.200,380.181 103.200 C 378.930 103.200,378.841 103.108,378.724 101.700 C 378.626 100.519,378.417 100.174,377.742 100.078 C 376.292 99.871,375.654 98.754,375.523 96.194 L 375.400 93.800 373.716 93.678 L 372.032 93.556 371.916 90.278 L 371.800 87.000 370.300 86.876 C 368.842 86.755,368.800 86.708,368.800 85.176 C 368.800 83.607,368.793 83.600,367.217 83.600 L 365.634 83.600 365.517 80.500 L 365.400 77.400 363.900 77.276 C 362.449 77.156,362.400 77.101,362.400 75.619 C 362.400 74.003,361.959 73.600,360.191 73.600 C 359.390 73.600,359.230 73.374,359.124 72.100 C 359.004 70.644,358.950 70.596,357.300 70.477 C 355.608 70.355,355.600 70.346,355.600 68.777 C 355.600 67.204,355.596 67.200,354.000 67.200 L 352.400 67.200 352.400 65.600 L 352.400 64.000 350.800 64.000 L 349.200 64.000 349.200 60.800 C 349.200 57.682,349.175 57.600,348.233 57.600 C 346.511 57.600,346.000 57.188,346.000 55.800 C 346.000 54.412,345.489 54.000,343.767 54.000 C 343.011 54.000,342.800 53.789,342.800 53.033 C 342.800 50.965,342.531 50.800,339.157 50.800 L 336.000 50.800 336.000 49.200 L 336.000 47.600 334.400 47.600 L 332.800 47.600 332.800 46.000 L 332.800 44.400 331.200 44.400 C 329.606 44.400,329.600 44.394,329.600 42.835 C 329.600 41.325,329.545 41.261,328.022 41.004 C 326.551 40.755,326.436 40.638,326.322 39.269 C 326.204 37.853,326.140 37.796,324.523 37.678 C 322.904 37.560,322.841 37.505,322.723 36.078 L 322.600 34.600 319.500 34.483 L 316.400 34.366 316.400 32.783 C 316.400 31.207,316.393 31.200,314.824 31.200 C 313.292 31.200,313.245 31.158,313.124 29.700 L 313.000 28.200 309.700 28.084 L 306.400 27.968 306.400 26.434 C 306.400 24.770,305.712 24.400,302.612 24.400 C 301.241 24.400,300.178 23.525,299.938 22.200 C 299.829 21.597,299.424 21.369,298.297 21.276 C 297.026 21.170,296.800 21.009,296.800 20.209 C 296.800 18.167,296.524 18.000,293.157 18.000 L 290.000 18.000 290.000 16.400 L 290.000 14.800 286.000 14.800 C 281.697 14.800,280.400 14.244,280.400 12.400 C 280.400 11.663,280.133 11.600,277.000 11.600 L 273.600 11.600 273.600 10.000 L 273.600 8.400 268.823 8.400 L 264.046 8.400 263.923 6.700 L 263.800 5.000 258.923 4.888 L 254.047 4.776 253.923 3.288 L 253.800 1.800 245.700 1.692 C 237.931 1.588,237.600 1.551,237.600 0.792 C 237.600 0.008,237.202 0.000,200.000 0.000 C 162.798 0.000,162.400 0.008,162.400 0.792 M13.692 280.875 C 13.939 281.617,14.800 281.740,14.800 281.033 C 14.800 280.685,14.515 280.400,14.167 280.400 C 13.818 280.400,13.605 280.614,13.692 280.875 M15.487 287.612 C 15.690 288.388,17.033 289.600,17.689 289.600 C 17.860 289.600,18.000 288.970,18.000 288.200 C 18.000 286.874,17.928 286.800,16.637 286.800 C 15.465 286.800,15.305 286.913,15.487 287.612 M58.000 346.311 C 58.000 347.047,59.310 348.400,60.023 348.400 C 60.620 348.400,60.800 348.122,60.800 347.200 C 60.800 346.095,60.689 346.000,59.400 346.000 C 58.630 346.000,58.000 346.140,58.000 346.311 " stroke="none" fill="#fbfbfb" fill-rule="evenodd"></path></g></svg>